<svg data-v-423bf9ae="" xmlns="http://www.w3.org/2000/svg" viewBox="0 0 285.62254692122275 163" class="iconAbove"><!----><!----><!----><g data-v-423bf9ae="" id="8b38cd6c-30e3-4f01-8bc9-48f45e8c1cb4" fill="black" transform="matrix(4.698511969396391,0,0,4.698511969396391,-2.678149469359994,89.13939065833102)"><path d="M3.04 12.74L3.04 12.74Q2.43 12.74 1.93 12.52L1.93 12.52L1.93 12.52Q1.43 12.30 1.08 11.93L1.08 11.93L1.08 11.93Q0.73 11.55 0.57 11.11L0.57 11.11L1.32 10.70L1.32 10.70Q1.51 11.31 1.96 11.68L1.96 11.68L1.96 11.68Q2.41 12.04 3.08 12.04L3.08 12.04L3.08 12.04Q3.69 12.04 4.08 11.74L4.08 11.74L4.08 11.74Q4.48 11.44 4.48 10.84L4.48 10.84L4.48 10.84Q4.48 10.38 4.24 10.10L4.24 10.10L4.24 10.10Q4.01 9.81 3.66 9.65L3.66 9.65L3.66 9.65Q3.32 9.49 2.73 9.29L2.73 9.29L2.73 9.29Q2.09 9.08 1.71 8.89L1.71 8.89L1.71 8.89Q1.33 8.71 1.06 8.36L1.06 8.36L1.06 8.36Q0.80 8.02 0.80 7.46L0.80 7.46L0.80 7.46Q0.80 6.90 1.08 6.48L1.08 6.48L1.08 6.48Q1.36 6.06 1.83 5.85L1.83 5.85L1.83 5.85Q2.30 5.63 2.87 5.63L2.87 5.63L2.87 5.63Q3.61 5.63 4.17 5.99L4.17 5.99L4.17 5.99Q4.72 6.35 5.02 6.97L5.02 6.97L4.41 7.33L4.41 7.33Q4.18 6.84 3.78 6.59L3.78 6.59L3.78 6.59Q3.38 6.33 2.84 6.33L2.84 6.33L2.84 6.33Q2.26 6.33 1.91 6.62L1.91 6.62L1.91 6.62Q1.57 6.90 1.57 7.37L1.57 7.37L1.57 7.37Q1.57 7.73 1.78 7.97L1.78 7.97L1.78 7.97Q1.99 8.20 2.31 8.34L2.31 8.34L2.31 8.34Q2.63 8.48 3.17 8.65L3.17 8.65L3.17 8.65Q3.86 8.87 4.28 9.07L4.28 9.07L4.28 9.07Q4.70 9.28 5.00 9.67L5.00 9.67L5.00 9.67Q5.30 10.06 5.30 10.70L5.30 10.70L5.30 10.70Q5.30 11.35 4.99 11.82L4.99 11.82L4.99 11.82Q4.68 12.28 4.16 12.51L4.16 12.51L4.16 12.51Q3.64 12.74 3.04 12.74L3.04 12.74ZM7.07 12.61L7.07 2.95L7.91 2.95L7.91 6.98L7.91 6.98Q8.24 6.40 8.87 6.03L8.87 6.03L8.87 6.03Q9.50 5.66 10.19 5.66L10.19 5.66L10.19 5.66Q10.96 5.66 11.46 6.02L11.46 6.02L11.46 6.02Q11.96 6.38 12.20 6.99L12.20 6.99L12.20 6.99Q12.43 7.60 12.43 8.36L12.43 8.36L12.43 12.61L11.57 12.61L11.57 8.52L11.57 8.52Q11.57 7.66 11.23 7.06L11.23 7.06L11.23 7.06Q10.90 6.47 10.06 6.47L10.06 6.47L10.06 6.47Q9.46 6.47 8.97 6.80L8.97 6.80L8.97 6.80Q8.48 7.13 8.19 7.68L8.19 7.68L8.19 7.68Q7.91 8.23 7.91 8.87L7.91 8.87L7.91 12.61L7.07 12.61ZM17.26 12.74L17.26 12.74Q16.34 12.74 15.63 12.26L15.63 12.26L15.63 12.26Q14.91 11.78 14.51 10.96L14.51 10.96L14.51 10.96Q14.11 10.14 14.11 9.17L14.11 9.17L14.11 9.17Q14.11 8.20 14.51 7.39L14.51 7.39L14.51 7.39Q14.91 6.58 15.63 6.11L15.63 6.11L15.63 6.11Q16.34 5.63 17.26 5.63L17.26 5.63L17.26 5.63Q18.18 5.63 18.90 6.11L18.90 6.11L18.90 6.11Q19.63 6.58 20.04 7.40L20.04 7.40L20.04 7.40Q20.45 8.21 20.45 9.17L20.45 9.17L20.45 9.17Q20.45 10.14 20.04 10.96L20.04 10.96L20.04 10.96Q19.63 11.78 18.90 12.26L18.90 12.26L18.90 12.26Q18.18 12.74 17.26 12.74L17.26 12.74ZM17.27 12.04L17.27 12.04Q18.03 12.04 18.56 11.64L18.56 11.64L18.56 11.64Q19.09 11.23 19.34 10.58L19.34 10.58L19.34 10.58Q19.60 9.92 19.60 9.17L19.60 9.17L19.60 9.17Q19.60 8.43 19.34 7.78L19.34 7.78L19.34 7.78Q19.09 7.13 18.57 6.73L18.57 6.73L18.57 6.73Q18.05 6.33 17.29 6.33L17.29 6.33L17.29 6.33Q16.54 6.33 16.01 6.73L16.01 6.73L16.01 6.73Q15.48 7.13 15.22 7.78L15.22 7.78L15.22 7.78Q14.96 8.43 14.96 9.17L14.96 9.17L14.96 9.17Q14.96 9.93 15.22 10.58L15.22 10.58L15.22 10.58Q15.48 11.24 16.01 11.64L16.01 11.64L16.01 11.64Q16.53 12.04 17.27 12.04L17.27 12.04ZM24.77 12.69L24.77 12.69Q23.80 12.69 23.12 12.22L23.12 12.22L23.12 12.22Q22.45 11.76 22.11 10.98L22.11 10.98L22.11 10.98Q21.78 10.19 21.78 9.23L21.78 9.23L21.78 9.23Q21.78 8.28 22.11 7.47L22.11 7.47L22.11 7.47Q22.44 6.67 23.09 6.18L23.09 6.18L23.09 6.18Q23.73 5.69 24.65 5.69L24.65 5.69L24.65 5.69Q25.68 5.69 26.31 6.16L26.31 6.16L26.31 6.16Q26.94 6.64 27.21 7.38L27.21 7.38L27.21 7.38Q27.48 8.13 27.48 9.00L27.48 9.00L27.48 9.00Q27.48 9.24 27.45 9.48L27.45 9.48L22.67 9.48L22.67 9.48Q22.65 10.15 22.89 10.71L22.89 10.71L22.89 10.71Q23.13 11.27 23.60 11.61L23.60 11.61L23.60 11.61Q24.08 11.95 24.75 11.95L24.75 11.95L24.75 11.95Q25.41 11.95 25.88 11.79L25.88 11.79L25.88 11.79Q26.35 11.63 26.74 11.22L26.74 11.22L27.32 11.67L27.32 11.67Q26.77 12.21 26.17 12.45L26.17 12.45L26.17 12.45Q25.57 12.69 24.77 12.69L24.77 12.69ZM22.67 8.74L26.67 8.74L26.67 8.74Q26.67 8.13 26.47 7.60L26.47 7.60L26.47 7.60Q26.28 7.07 25.83 6.73L25.83 6.73L25.83 6.73Q25.38 6.39 24.65 6.39L24.65 6.39L24.65 6.39Q24.02 6.39 23.58 6.71L23.58 6.71L23.58 6.71Q23.14 7.03 22.92 7.57L22.92 7.57L22.92 7.57Q22.70 8.10 22.67 8.74L22.67 8.74ZM31.17 12.74L31.17 12.74Q30.57 12.74 30.07 12.52L30.07 12.52L30.07 12.52Q29.57 12.30 29.22 11.93L29.22 11.93L29.22 11.93Q28.87 11.55 28.71 11.11L28.71 11.11L29.46 10.70L29.46 10.70Q29.65 11.31 30.10 11.68L30.10 11.68L30.10 11.68Q30.55 12.04 31.22 12.04L31.22 12.04L31.22 12.04Q31.83 12.04 32.22 11.74L32.22 11.74L32.22 11.74Q32.61 11.44 32.61 10.84L32.61 10.84L32.61 10.84Q32.61 10.38 32.38 10.10L32.38 10.10L32.38 10.10Q32.14 9.81 31.80 9.65L31.80 9.65L31.80 9.65Q31.46 9.49 30.86 9.29L30.86 9.29L30.86 9.29Q30.23 9.08 29.85 8.89L29.85 8.89L29.85 8.89Q29.46 8.71 29.20 8.36L29.20 8.36L29.20 8.36Q28.94 8.02 28.94 7.46L28.94 7.46L28.94 7.46Q28.94 6.90 29.22 6.48L29.22 6.48L29.22 6.48Q29.50 6.06 29.97 5.85L29.97 5.85L29.97 5.85Q30.44 5.63 31.01 5.63L31.01 5.63L31.01 5.63Q31.75 5.63 32.30 5.99L32.30 5.99L32.30 5.99Q32.86 6.35 33.16 6.97L33.16 6.97L32.55 7.33L32.55 7.33Q32.31 6.84 31.92 6.59L31.92 6.59L31.92 6.59Q31.52 6.33 30.98 6.33L30.98 6.33L30.98 6.33Q30.40 6.33 30.05 6.62L30.05 6.62L30.05 6.62Q29.70 6.90 29.70 7.37L29.70 7.37L29.70 7.37Q29.70 7.73 29.91 7.97L29.91 7.97L29.91 7.97Q30.13 8.20 30.44 8.34L30.44 8.34L30.44 8.34Q30.76 8.48 31.31 8.65L31.31 8.65L31.31 8.65Q32.00 8.87 32.42 9.07L32.42 9.07L32.42 9.07Q32.84 9.28 33.14 9.67L33.14 9.67L33.14 9.67Q33.44 10.06 33.44 10.70L33.44 10.70L33.44 10.70Q33.44 11.35 33.13 11.82L33.13 11.82L33.13 11.82Q32.81 12.28 32.29 12.51L32.29 12.51L32.29 12.51Q31.77 12.74 31.17 12.74L31.17 12.74ZM36.96 12.74L36.96 12.74Q36.12 12.74 35.78 12.24L35.78 12.24L35.78 12.24Q35.43 11.74 35.43 10.81L35.43 10.81L35.43 6.47L34.34 6.47L34.34 5.78L35.43 5.78L35.43 4.27L36.29 3.38L36.29 5.78L38.02 5.78L38.02 6.47L36.29 6.47L36.29 10.90L36.29 10.90Q36.29 11.46 36.53 11.76L36.53 11.76L36.53 11.76Q36.78 12.06 37.18 12.06L37.18 12.06L37.18 12.06Q37.46 12.06 37.80 11.91L37.80 11.91L37.80 12.62L37.80 12.62Q37.69 12.67 37.46 12.70L37.46 12.70L37.46 12.70Q37.24 12.74 36.96 12.74L36.96 12.74ZM39.66 12.61L39.66 5.78L40.52 5.78L40.52 7.01L40.52 7.01Q40.80 6.38 41.36 6.01L41.36 6.01L41.36 6.01Q41.92 5.63 42.58 5.63L42.58 5.63L42.58 5.63Q43.18 5.63 43.65 5.95L43.65 5.95L43.30 6.71L43.30 6.71Q43.00 6.45 42.44 6.45L42.44 6.45L42.44 6.45Q41.51 6.45 41.01 7.14L41.01 7.14L41.01 7.14Q40.51 7.83 40.51 9.06L40.51 9.06L40.51 12.61L39.66 12.61ZM44.99 4.20L44.99 2.95L46.01 2.95L46.01 4.20L44.99 4.20ZM45.08 12.61L45.08 5.78L45.93 5.78L45.93 12.61L45.08 12.61ZM48.32 12.61L48.32 5.78L49.18 5.78L49.18 7.06L49.18 7.06Q49.52 6.41 50.09 6.04L50.09 6.04L50.09 6.04Q50.65 5.66 51.43 5.66L51.43 5.66L51.43 5.66Q52.19 5.66 52.69 6.03L52.69 6.03L52.69 6.03Q53.20 6.40 53.43 7.03L53.43 7.03L53.43 7.03Q53.67 7.66 53.67 8.45L53.67 8.45L53.67 12.61L52.81 12.61L52.81 8.52L52.81 8.52Q52.81 7.64 52.45 7.00L52.45 7.00L52.45 7.00Q52.08 6.36 51.21 6.36L51.21 6.36L51.21 6.36Q50.64 6.36 50.18 6.68L50.18 6.68L50.18 6.68Q49.72 6.99 49.45 7.61L49.45 7.61L49.45 7.61Q49.18 8.22 49.18 9.11L49.18 9.11L49.18 12.61L48.32 12.61ZM58.18 11.76L58.18 11.76Q59.15 11.90 59.71 12.05L59.71 12.05L59.71 12.05Q60.26 12.20 60.65 12.58L60.65 12.58L60.65 12.58Q61.04 12.97 61.04 13.69L61.04 13.69L61.04 13.69Q61.04 14.34 60.67 14.80L60.67 14.80L60.67 14.80Q60.30 15.26 59.69 15.49L59.69 15.49L59.69 15.49Q59.09 15.72 58.38 15.72L58.38 15.72L58.38 15.72Q57.54 15.72 56.88 15.41L56.88 15.41L56.88 15.41Q56.23 15.10 55.86 14.58L55.86 14.58L55.86 14.58Q55.49 14.05 55.49 13.42L55.49 13.42L55.49 13.42Q55.49 13.26 55.51 13.17L55.51 13.17L56.56 12.09L56.56 12.09Q55.64 11.61 55.64 10.67L55.64 10.67L55.64 10.67Q55.64 10.37 55.75 10.10L55.75 10.10L55.75 10.10Q55.85 9.84 56.11 9.60L56.11 9.60L56.11 9.60Q55.83 9.30 55.68 8.91L55.68 8.91L55.68 8.91Q55.54 8.52 55.54 8.05L55.54 8.05L55.54 8.05Q55.54 7.35 55.86 6.81L55.86 6.81L55.86 6.81Q56.18 6.28 56.75 5.98L56.75 5.98L56.75 5.98Q57.32 5.69 58.02 5.69L58.02 5.69L58.02 5.69Q58.57 5.69 59.03 5.87L59.03 5.87L59.03 5.87Q59.49 6.06 59.82 6.38L59.82 6.38L60.85 5.43L61.36 6.08L60.23 6.96L60.23 6.96Q60.48 7.47 60.48 8.05L60.48 8.05L60.48 8.05Q60.48 8.76 60.16 9.29L60.16 9.29L60.16 9.29Q59.83 9.81 59.27 10.09L59.27 10.09L59.27 10.09Q58.71 10.36 58.01 10.36L58.01 10.36L58.01 10.36Q57.31 10.36 56.73 10.08L56.73 10.08L56.73 10.08Q56.58 10.20 56.50 10.34L56.50 10.34L56.50 10.34Q56.42 10.47 56.42 10.64L56.42 10.64L56.42 10.64Q56.42 11.16 56.90 11.41L56.90 11.41L56.90 11.41Q57.37 11.66 58.18 11.76L58.18 11.76ZM58.00 6.38L58.00 6.38Q57.52 6.38 57.16 6.60L57.16 6.60L57.16 6.60Q56.80 6.83 56.60 7.21L56.60 7.21L56.60 7.21Q56.40 7.59 56.40 8.03L56.40 8.03L56.40 8.03Q56.40 8.51 56.60 8.88L56.60 8.88L56.60 8.88Q56.80 9.25 57.16 9.45L57.16 9.45L57.16 9.45Q57.52 9.65 58.00 9.65L58.00 9.65L58.00 9.65Q58.47 9.65 58.84 9.45L58.84 9.45L58.84 9.45Q59.21 9.25 59.41 8.88L59.41 8.88L59.41 8.88Q59.61 8.51 59.61 8.03L59.61 8.03L59.61 8.03Q59.61 7.57 59.41 7.20L59.41 7.20L59.41 7.20Q59.21 6.82 58.84 6.60L58.84 6.60L58.84 6.60Q58.47 6.38 58.00 6.38L58.00 6.38ZM58.47 14.92L58.47 14.92Q58.95 14.92 59.36 14.78L59.36 14.78L59.36 14.78Q59.78 14.65 60.04 14.38L60.04 14.38L60.04 14.38Q60.29 14.12 60.29 13.73L60.29 13.73L60.29 13.73Q60.29 13.33 60.05 13.11L60.05 13.11L60.05 13.11Q59.81 12.89 59.44 12.80L59.44 12.80L59.44 12.80Q59.08 12.70 58.41 12.60L58.41 12.60L57.96 12.52L57.96 12.52Q57.57 12.46 57.24 12.36L57.24 12.36L56.32 13.43L56.32 13.43Q56.31 13.79 56.56 14.14L56.56 14.14L56.56 14.14Q56.81 14.48 57.31 14.70L57.31 14.70L57.31 14.70Q57.80 14.92 58.47 14.92L58.47 14.92Z"></path></g><!----><g data-v-423bf9ae="" id="5fc121b9-fbd6-473f-8903-b30300c6dd6e" transform="matrix(2.396004952273284,0,0,2.396004952273284,64.64048077514809,1.0000478448180914)" stroke="none" fill="black"><path d="M2.847 3.07c.092.555.18 1.112.263 1.673.644 4.357.93 8.884-.487 13.044C1.355 21.51.196 25.102.424 29.013c-.036.81-.289 1.237-.346 2.074a38.764 38.764 0 0 0-.069 1.404c-.034 1.066.026 1.353.206 2.153.077.347.226.477.447.595 2.316 1.3 7.567 1.889 11.119 1.742.863-.035 1.625-.067 2.2-.071h.023c2.856-.107 6.939-.169 10.88-.137 3.224.026 6.36.115 8.66.294 2.423.244 4.323.379 6.212.444 1.882.065 3.75.061 6.112.029 3.196.039 6.859-.46 10.16-1.168 3.737-.801 7.029-1.875 8.668-2.741.473-.233.563-.567.625-.907.082-.721.119-1.48.055-2.31a12.107 12.107 0 0 0-.57-2.818c-.101-.298-.295-.725-.726-1.02-2.32-1.674-5.456-1.305-8.159-1.265-.458.013-.977.07-1.473.087l-.006-.009-.286.01c-.452-.095-1.415-.313-2.232-.5-.75-.17-1.19.55-1.318 1.236-.005.044-.013.087-.02.131a1.454 1.454 0 0 1-1.643 1.153c-.786-.113-1.317-.856-1.215-1.658.12-.948-.049-1.94-1.513-2.426-.44-.146-.833-.31-1.226-.479-1.21-.52-1.981-.324-2.694 1.4-.017.042-.036.081-.055.121a1.454 1.454 0 0 1-1.893.67c-.726-.32-1.087-1.197-.748-1.93.593-1.286.932-2.294-.522-3.115-.325-.184-.62-.39-.928-.575-1.056-.635-1.886-1.192-3.216.324l-.601.74a1.464 1.464 0 0 1-2.292-1.821c.16-.196.32-.394.483-.59.788-.946 1.363-2.083-.328-3.696-1.14-1.086-1.88-1.566-3.77.002l-.628.528c-.033.03-.068.056-.103.083a1.464 1.464 0 0 1-1.802-2.306c.321-.267.632-.546.962-.801 1.967-1.518.894-2.75.123-3.596-.904-.993-1.552-1.802-3.56-.29l-.746.604c-.034.03-.07.055-.105.082a1.464 1.464 0 0 1-1.759-2.34c.449-.358.878-.744 1.345-1.079 1.523-1.09.226-3.504-.641-4.524C20.7-.206 20.203-.14 19.14.349c-.839.386-1.881 1.2-2.447 2.129-2.066 2.986-5.124-.215-8.107-.63-1.743-.244-6.72-1.563-5.74 1.223zM2.068 30.23c1.69.316 4.381 1.662 8.618 1.573 6.634-.14 13.799-1.071 21.034-.1 11.462 1.537 18.055.866 23.468-1.58.535-.078.855-.952.742-1.361-.21-.79-.51-1.615-.83-2.238-.057-.363.415-.349.892-.37 3.682-.1 5.57-.218 7.315.947.402.268.566.474.67.813.293.943.45 1.783.51 2.557.15 1.974-.131 2.416-1.615 3.01-1.706.682-4.172 1.41-7 2.016-3.26.7-6.869 1.192-10 1.153h-.01c-2.35.033-4.208-.105-6.083-.17-5.036-.174-9.662-.554-14.888-.596-4.34-.035-8.816.03-13.14.208-2.97.122-6.918-.277-9.338-1.09-1.148-.384-1.222-.458-1.3-1.603-.062-.924-.068-2.318.166-2.732a.816.816 0 0 1 .789-.437zM13.641 9.973a6.612 6.612 0 1 0 0 13.224 6.612 6.612 0 0 0 0-13.224z"></path></g><!----></svg>