<svg data-v-fde0c5aa="" xmlns="http://www.w3.org/2000/svg" viewBox="0 0 300 300" class="icon"><!----><defs data-v-fde0c5aa=""><!----></defs><rect data-v-fde0c5aa="" fill="#3bd389" x="0" y="0" width="300px" height="300px" class="logo-background-square"></rect><!----><defs data-v-fde0c5aa=""><!----></defs><g data-v-fde0c5aa="" id="9ed7fe12-a3ac-473f-80b2-2ad16b1a830a" fill="#ffffff" stroke="none" transform="matrix(3.3634740507983514,0,0,3.3634740507983514,40.00024930776353,86.82982335145874)"><path d="M2.847 3.07c.092.555.18 1.112.263 1.673.644 4.357.93 8.884-.487 13.044C1.355 21.51.196 25.102.424 29.013c-.036.81-.289 1.237-.346 2.074a38.764 38.764 0 0 0-.069 1.404c-.034 1.066.026 1.353.206 2.153.077.347.226.477.447.595 2.316 1.3 7.567 1.889 11.119 1.742.863-.035 1.625-.067 2.2-.071h.023c2.856-.107 6.939-.169 10.88-.137 3.224.026 6.36.115 8.66.294 2.423.244 4.323.379 6.212.444 1.882.065 3.75.061 6.112.029 3.196.039 6.859-.46 10.16-1.168 3.737-.801 7.029-1.875 8.668-2.741.473-.233.563-.567.625-.907.082-.721.119-1.48.055-2.31a12.107 12.107 0 0 0-.57-2.818c-.101-.298-.295-.725-.726-1.02-2.32-1.674-5.456-1.305-8.159-1.265-.458.013-.977.07-1.473.087l-.006-.009-.286.01c-.452-.095-1.415-.313-2.232-.5-.75-.17-1.19.55-1.318 1.236-.005.044-.013.087-.02.131a1.454 1.454 0 0 1-1.643 1.153c-.786-.113-1.317-.856-1.215-1.658.12-.948-.049-1.94-1.513-2.426-.44-.146-.833-.31-1.226-.479-1.21-.52-1.981-.324-2.694 1.4-.017.042-.036.081-.055.121a1.454 1.454 0 0 1-1.893.67c-.726-.32-1.087-1.197-.748-1.93.593-1.286.932-2.294-.522-3.115-.325-.184-.62-.39-.928-.575-1.056-.635-1.886-1.192-3.216.324l-.601.74a1.464 1.464 0 0 1-2.292-1.821c.16-.196.32-.394.483-.59.788-.946 1.363-2.083-.328-3.696-1.14-1.086-1.88-1.566-3.77.002l-.628.528c-.033.03-.068.056-.103.083a1.464 1.464 0 0 1-1.802-2.306c.321-.267.632-.546.962-.801 1.967-1.518.894-2.75.123-3.596-.904-.993-1.552-1.802-3.56-.29l-.746.604c-.034.03-.07.055-.105.082a1.464 1.464 0 0 1-1.759-2.34c.449-.358.878-.744 1.345-1.079 1.523-1.09.226-3.504-.641-4.524C20.7-.206 20.203-.14 19.14.349c-.839.386-1.881 1.2-2.447 2.129-2.066 2.986-5.124-.215-8.107-.63-1.743-.244-6.72-1.563-5.74 1.223zM2.068 30.23c1.69.316 4.381 1.662 8.618 1.573 6.634-.14 13.799-1.071 21.034-.1 11.462 1.537 18.055.866 23.468-1.58.535-.078.855-.952.742-1.361-.21-.79-.51-1.615-.83-2.238-.057-.363.415-.349.892-.37 3.682-.1 5.57-.218 7.315.947.402.268.566.474.67.813.293.943.45 1.783.51 2.557.15 1.974-.131 2.416-1.615 3.01-1.706.682-4.172 1.41-7 2.016-3.26.7-6.869 1.192-10 1.153h-.01c-2.35.033-4.208-.105-6.083-.17-5.036-.174-9.662-.554-14.888-.596-4.34-.035-8.816.03-13.14.208-2.97.122-6.918-.277-9.338-1.09-1.148-.384-1.222-.458-1.3-1.603-.062-.924-.068-2.318.166-2.732a.816.816 0 0 1 .789-.437zM13.641 9.973a6.612 6.612 0 1 0 0 13.224 6.612 6.612 0 0 0 0-13.224z"></path></g><!----></svg>